<?xml version="1.0" encoding="UTF-8" standalone="no"?>
<svg
   width="105"
   height="25.379761"
   viewBox="0 0 105 25.379762"
   version="1.1"
   id="svg1268"
   xmlns="http://www.w3.org/2000/svg"
   xmlns:svg="http://www.w3.org/2000/svg">
  <defs
     id="defs1243">
    <clipPath
       clipPathUnits="userSpaceOnUse"
       id="clipPath1394">
      <g
         id="g1398"
         transform="translate(0,-3e-5)">
        <path
           d="m 354,828 h 13.51172 v 14 H 354 Z m 0,0"
           id="path1396" />
      </g>
    </clipPath>
    <clipPath
       clipPathUnits="userSpaceOnUse"
       id="clipPath1415">
      <g
         id="g1419">
        <path
           d="M 0,0 H 367 V 87.83203 H 0 Z m 0,0"
           id="path1417" />
      </g>
    </clipPath>
  </defs>
  <g
     id="g315"
     transform="scale(0.28570517)">
    <g
       id="g1432">
      <path
         style="fill:#ffffff;fill-opacity:1;fill-rule:nonzero;stroke:none"
         d="M 1.300781,43.51953 C 1.289062,70.17187 93.910156,86.13672 183.46484,86.17578 273.01953,86.21488 365.65625,70.32812 365.66797,43.67969 365.67967,17.02734 273.05469,1.05859 183.5,1.01953 93.949219,0.98043 1.3125,16.86328 1.300781,43.51953"
         id="path1245" />
      <path
         style="fill:#143f7f;fill-opacity:1;fill-rule:nonzero;stroke:none"
         d="M 357.84375,43.46094 C 357.83575,63.125 279.76172,79.03515 183.46094,78.99219 87.160156,78.94919 9.101562,62.97265 9.113281,43.30469 9.121091,23.63672 87.195312,7.73047 183.49219,7.77344 c 96.30078,0.043 174.36328,16.01953 174.35156,35.6875"
         id="path1247" />
      <path
         style="clip-rule:nonzero;fill:#143f7f;fill-opacity:1;fill-rule:nonzero;stroke:none"
         d="M 3.511719,43.47265 C 3.519529,24.13281 75.84375,3.46094 183.49609,3.50781 291.14844,3.55861 363.45703,24.29297 363.44531,43.6289 363.43731,62.96484 291.11328,83.63672 183.46094,83.58984 75.808594,83.53906 3.503906,62.80469 3.511719,43.47265 Z M 0,43.46875 c -0.0117188,27.25781 93.269531,43.58984 183.45703,43.63281 90.19141,0.0391 183.48828,-16.21094 183.5,-43.47266 C 366.96873,16.37109 273.6875,0.03906 183.49609,0 93.304688,-0.03906 0.0117188,16.20703 0,43.46875"
         id="path1249"
         clip-path="url(#clipPath1415)" />
      <path
         style="clip-rule:nonzero;fill:#143f7f;fill-opacity:1;fill-rule:nonzero;stroke:none"
         d="m 359.21094,835.08594 h 1.38281 c 0.66016,0 1.10937,-0.0977 1.35156,-0.29297 0.23828,-0.19531 0.36328,-0.45703 0.36328,-0.78125 0,-0.20703 -0.0625,-0.39453 -0.17578,-0.5586 -0.11719,-0.16406 -0.27344,-0.28906 -0.48047,-0.37109 -0.20703,-0.0781 -0.58984,-0.12109 -1.14453,-0.12109 h -1.29687 z m -1.13672,3.97265 0.004,-7.05078 h 2.42579 c 0.82812,0 1.42968,0.0664 1.80078,0.19922 0.36718,0.12891 0.66406,0.35547 0.88672,0.67969 0.21875,0.32422 0.32812,0.66797 0.32812,1.03125 0,0.51562 -0.18359,0.96484 -0.55078,1.34375 -0.37109,0.38281 -0.85938,0.59765 -1.46875,0.64453 0.25391,0.10156 0.45312,0.22656 0.60156,0.375 0.28906,0.27344 0.63672,0.74219 1.05078,1.39844 l 0.85938,1.38281 h -1.39063 l -0.6289,-1.11328 c -0.49219,-0.875 -0.89453,-1.42578 -1.19532,-1.64453 -0.20703,-0.16407 -0.51171,-0.24219 -0.91406,-0.24219 l -0.67578,-0.004 v 3 z m 2.89062,-9.09375 c -0.92187,0 -1.8164,0.23438 -2.6875,0.70703 -0.87109,0.46875 -1.55468,1.14454 -2.04297,2.02344 -0.49218,0.875 -0.73828,1.79297 -0.73828,2.74219 -0.004,0.94531 0.23828,1.85156 0.72266,2.71875 0.48047,0.86328 1.15625,1.53906 2.02344,2.02344 0.86718,0.48437 1.77343,0.72656 2.71484,0.72656 0.94141,0 1.84766,-0.23828 2.71484,-0.72656 0.8711,-0.48047 1.54297,-1.15625 2.02735,-2.01953 0.47656,-0.86719 0.71875,-1.77344 0.71875,-2.71875 0,-0.94922 -0.2461,-1.86719 -0.73047,-2.74219 -0.48828,-0.87891 -1.17188,-1.55469 -2.04297,-2.02735 -0.87109,-0.47265 -1.76562,-0.70703 -2.67969,-0.70703 z m 0,-1.09375 c 1.09766,0 2.17188,0.28516 3.22266,0.84766 1.04687,0.56641 1.86328,1.375 2.44531,2.42969 0.58594,1.05468 0.87891,2.15234 0.87891,3.29297 0,1.13281 -0.28906,2.21875 -0.86719,3.26562 -0.57422,1.04297 -1.38672,1.85156 -2.42578,2.42969 -1.03906,0.57812 -2.125,0.86328 -3.26172,0.86328 -1.13281,0 -2.22266,-0.28906 -3.26172,-0.86719 -1.03906,-0.57812 -1.84765,-1.38672 -2.42578,-2.43359 -0.58203,-1.04297 -0.86719,-2.13281 -0.86719,-3.26172 0,-1.14453 0.29297,-2.23828 0.88282,-3.29297 0.58984,-1.05078 1.40625,-1.86328 2.45312,-2.42578 1.05078,-0.56641 2.12109,-0.84766 3.22656,-0.84766"
         id="path1263"
         clip-path="url(#clipPath1394)"
         transform="translate(0,-753.16797)" />
    </g>
    <g
       id="g1426">
      <path
         style="fill:#ffffff;fill-opacity:1;fill-rule:nonzero;stroke:none"
         d="m 96.429688,31.85547 -2.648438,5.47656 -1.085938,-0.78516 c -1.261718,-2.70703 -2.34375,-3.85156 -5.535156,-4.45703 -3.1875,-0.60156 -8.542968,-1.26562 -11.433594,-1.14844 -7.761718,0.11719 -21.265624,3.72657 -21.128906,12.03125 0.117188,7.03907 8.179688,12.88282 21.78125,12.94922 4.992188,-0.12109 12.578125,0.30469 16.792969,-4.92968 0.78125,0 3.128906,0 3.128906,0 l -2.230469,5.53906 c -1.5625,-0.004 -2.527343,0.17969 -3.730468,0.41797 -3.070313,0.72265 -9.148438,1.63281 -14.445313,1.49609 C 63.796875,58.14062 46.40625,54.46094 46.472656,43.14844 c 0.0625,-11.31641 22.03125,-14.19532 28.535156,-14.13282 6.496094,0.0625 17.269532,1.9961 21.363282,1.33594 0.117187,0.54297 0.05859,1.50391 0.05859,1.50391"
         id="path1253" />
      <path
         style="fill:#ffffff;fill-opacity:1;fill-rule:nonzero;stroke:none"
         d="m 154.98828,31.27734 c 1.50391,0.004 2.34766,0.004 2.34766,0.004 l 0.0625,-2.10547 c -3.67188,0.11719 -14.56641,0.11328 -17.9375,-0.008 l -0.1211,2.04687 c 2.16797,0 4.21485,0.0586 4.21485,0.0586 1.20312,0.0625 2.28515,0.84375 2.28515,2.28906 -0.0977,3.10547 -0.14453,5.74219 -0.16015,8.24609 v 0.0586 l -34.35156,-0.0156 v -0.0586 c -0.0156,-2.50391 -0.0625,-5.14063 -0.15235,-8.2461 0,-1.44531 1.08203,-2.22656 2.28516,-2.28906 0,0 2.04687,-0.0547 4.21484,-0.0547 l -0.12109,-2.04687 c -3.36719,0.11719 -14.26172,0.11328 -17.933596,-0.008 l 0.05859,2.10546 c 0,0 0.839846,0 2.347656,0 1.50391,0 1.98438,1.20704 2.28516,2.58985 0.42188,2.40625 0.23438,13.78125 -0.008,19.85937 -0.1836,2.46875 -1.92578,2.34766 -4.636725,2.46875 v 2.04688 c 4.812505,-0.1211 13.660165,-0.11719 17.875005,-0.0547 V 56.1794 c 0,0 -3.19141,-0.0625 -4.39453,-0.0625 -1.20313,0 -1.86328,-1.08594 -1.92188,-2.34766 0.043,-2.72656 0.0703,-6.21094 0.082,-8.72656 l 0.004,-0.0625 34.37891,0.0156 v 0.0625 c 0.0117,2.51563 0.0352,6 0.0781,8.72656 -0.0586,1.26172 -0.72266,2.34766 -1.92578,2.34375 -1.20313,0 -4.39453,0.0586 -4.39453,0.0586 v 1.98828 c 4.21094,-0.0625 13.0625,-0.0586 17.875,0.0664 v -2.04688 c -2.70703,-0.12109 -4.45313,0 -4.63281,-2.46875 -0.23829,-6.07812 -0.41407,-17.45312 0.008,-19.86328 0.30078,-1.38281 0.78515,-2.58594 2.28906,-2.58594"
         id="path1255" />
      <path
         style="fill:#ffffff;fill-opacity:1;fill-rule:nonzero;stroke:none"
         d="m 184.77734,36.34765 -7.40625,9.02344 c 2.88672,0.24219 11.13282,0.48828 14.80469,0.0664 z m -19.26562,17.7461 c 0.90234,-1.20313 17.16015,-21.11719 20.10937,-24.96875 h 2.53125 c 0,0 16.89844,23 18.52344,24.92578 1.625,1.92578 3.30859,2.23047 6.13672,2.23047 v 2.10547 c -3.25,-0.35938 -13.17969,-0.2461 -17.27344,-0.12891 l 0.004,-2.10547 c 0,0 1.14062,-0.0586 2.82812,-0.23828 1.6836,-0.17969 1.26172,-1.38281 0.72266,-2.10547 0,0 -3.25,-3.73437 -3.85156,-4.39453 -0.60157,-0.66406 -1.74219,-1.08594 -2.64844,-1.08594 l -15.88672,-0.008 c -1.26172,0 -2.46875,0.72266 -2.94922,1.32422 -0.48047,0.60156 -2.76953,3.24609 -3.13281,3.66797 -0.35938,0.42187 -0.96094,1.08594 -1.02344,1.625 -0.0586,0.54297 0.84375,1.14453 1.92578,1.20703 1.08203,0.0586 3.85157,0.12109 5.11719,0.12109 l -0.0625,2.10547 c -4.8125,-0.24219 -13.42187,-0.1875 -17.26953,-0.0703 v -2.10547 c 4.21094,0.0625 5.29297,-0.89844 6.19922,-2.10156"
         id="path1257" />
      <path
         style="fill:#ffffff;fill-opacity:1;fill-rule:nonzero;stroke:none"
         d="m 226.24609,32.69531 c -0.18359,1.74219 -0.11328,7.57422 -0.004,8.96875 0.12109,0.35938 0.30078,0.48047 0.54297,0.48047 5.65625,0.004 11.97265,0.004 15.22656,-0.41406 3.24609,-0.42188 7.41015,-1.14063 7.34375,-5.11328 -0.0625,-3.60938 -6.57422,-4.63672 -10.65235,-5.0586 -3.26562,-0.33984 -7.64062,-0.48828 -10.83203,-0.36719 -0.78125,0 -1.5039,0.48047 -1.625,1.50391 z m 16.49219,-3.54297 c 5.17969,0 12.09375,2.41016 12.09375,7.28516 -0.004,4.875 -5.48047,6.55859 -10.11719,7.57812 1.86719,2.53125 5.41797,4.82032 9.6875,7.41016 9.56641,5.71875 11.97657,5.54297 16.48828,5.60156 v 1.32422 c -4.45312,1.50391 -7.76562,0.78125 -10.17187,0.23828 -5.77734,-1.44922 -16.42578,-6.44922 -20.45703,-10.66015 -2.88281,-3.01563 -4.9336,-3.01172 -8.0625,-3.31641 -1.32031,-0.125 -5.89844,0.12109 -5.89844,0.12109 0,0 -0.30469,7.69922 -0.125,9.26563 0.17969,1.5625 1.20313,1.92578 2.94531,2.10937 0,0 1.50782,0.0586 3.4336,0.1211 l -0.004,2.10547 c -4.8125,-0.30079 -14.19922,-0.1875 -18.05469,-0.0703 l 0.004,-1.98437 c 0,0 1.74609,-0.11719 2.64844,-0.23828 2.64843,-0.17969 2.76953,-1.98828 2.89062,-3.55078 0.24219,-3.06641 -0.0547,-16.73047 -0.17578,-18.83594 -0.11719,-2.10547 -1.98437,-2.28906 -5.29297,-2.53125 v -1.92578 c 6.01953,0.0625 22.92969,-0.0508 28.16797,-0.0469"
         id="path1259" />
      <path
         style="fill:#ffffff;fill-opacity:1;fill-rule:nonzero;stroke:none"
         d="m 263.07812,28.3789 -3.61328,6.25782 3.01172,0.0586 c 1.08203,-1.26172 1.20313,-2.22266 4.03125,-2.34375 2.82813,-0.11719 13.54297,-0.0508 14.98828,-0.0508 0.96094,0.0586 1.50391,0.89844 1.5625,2.04297 0.14844,2.88672 0.29297,17.69531 -0.1289,19.32031 -0.30078,0.96484 -0.1836,2.22656 -2.34766,2.28516 -2.16797,0.0586 -5.11719,0.35937 -5.11719,0.35937 v 2.16797 c 7.28125,-0.41797 17.03125,-0.47656 24.91407,-0.0508 v -2.16797 c -2.10547,0 -4.44922,-0.12109 -5.83594,-0.24219 -1.23828,-0.10547 -2.05078,-0.78515 -2.16406,-2.40625 -0.30079,-4.27343 -1.03516,-15.23047 -0.53516,-19.14062 0.1875,-1.4375 1.20703,-2.17188 2.41016,-2.22656 3.97265,-0.17579 10.23046,-0.47657 15.88671,0.008 0.90235,0.17969 1.44532,0.30078 1.20313,1.08594 -0.12109,0.48046 -0.35938,1.38281 -0.35938,1.38281 h 3.25 l 2.41016,-5.77735 H 313.875 c -0.84375,0.72266 -2.46875,0.72266 -3.91406,0.90235 -9.14453,0.35547 -33.94141,0.22265 -42.96875,-0.37891 -1.44922,-0.0976 -2.89063,-0.72656 -3.91407,-1.08594"
         id="path1261" />
    </g>
  </g>
</svg>
